# xmcd CD database file
#
# Track frame offsets:
#	150
#	21770
#	41914
#	60484
#	74967
#	97090
#	124449
#	144384
#	169920
#	190488
#	206432
#	225316
#	240594
#	257419
#
# Disc length: 3810 seconds
#
# Revision: 2
# Processed by: cddbd v1.5.1PL2 Copyright (c) Steve Scherf et al.
# Submitted via: CDex 1.51
#
DISCID=cf0ee00e
DTITLE=Barry White - O Melhor de Barry White
DYEAR=2001
DGENRE=Jazz
TTITLE0=Never Gonna Give You Up
TTITLE1=Can't Get Enough Of Your Love Baby
TTITLE2=Love Theme
TTITLE3=Honey Please Can't You See
TTITLE4=Beware
TTITLE5=Let Me In and Let's Begin With Love
TTITLE6=Rio de Janeiro
TTITLE7=Lady Sweet Lady
TTITLE8=You're The First, The Last, The Everything
TTITLE9=Let The Music Play
TTITLE10=I'm Gonna Love You Just a Little
TTITLE11=Dreams
TTITLE12=Relax To The Max
TTITLE13=Louie Louie
EXTD=YEAR: 2001
EXTT0=
EXTT1=
EXTT2=
EXTT3=
EXTT4=
EXTT5=
EXTT6=
EXTT7=
EXTT8=
EXTT9=
EXTT10=
EXTT11=
EXTT12=
EXTT13=
PLAYORDER=
